<?xml version="1.0" encoding="utf-8"?>
<!-- Generator: Adobe Illustrator 16.0.0, SVG Export Plug-In . SVG Version: 6.00 Build 0)  -->
<!DOCTYPE svg PUBLIC "-//W3C//DTD SVG 1.1//EN" "http://www.w3.org/Graphics/SVG/1.1/DTD/svg11.dtd">
<svg version="1.1" xmlns="http://www.w3.org/2000/svg" xmlns:xlink="http://www.w3.org/1999/xlink" x="0px" y="0px" width="194.4px"
	 height="61.2px" viewBox="12.8 -0.6 194.4 61.2" enable-background="new 12.8 -0.6 194.4 61.2" xml:space="preserve">
<g id="Layer_2" display="none">
	<rect x="-36.16" y="-24" display="inline" width="292.32" height="108"/>
</g>
<g id="Layer_1">
	<path fill="#FFFFFF" d="M48.488,59.733c0.212,0,6.281-10.044,10.378-20.998c2.761-7.495,8.405-24.792,8.891-31.104
		c-8.618,1.791-18.237,27.947-22.85,31.104C44.543,38.948,44.3,39.1,43.724,39.1c-1.427-0.03-2.488-0.729-2.488-3.126
		c0.061-3.369,2.792-12.532,2.822-13.079c-0.061,0.212-4.127,7.344-5.735,10.712c-2.367,5.037-2.367,7.252-2.488,8.556
		c0.334,0.305,0.546,0.456,0.546,0.82c-0.03,0.394-0.546,0.637-1.092,0.637c-1.063-0.03-2.094-0.515-2.094-2.397
		c0.121-7.069,12.137-25.944,13.716-25.944l0.88-0.121c0.425,0,1.183,0.182,1.76,1.457l0.303,0.879
		c-0.03,0.486-0.758,1.336-1.244,1.336c-0.121,0-0.152,0-0.213,0.151c-3.49,8.679-4.399,14.687-4.43,16.537
		c0.789,0,9.498-16.476,13.746-22.302c3.642-4.977,7.04-7.738,9.559-7.738c1.76,0.032,2.944,1.153,2.944,3.551
		c-0.031,1.305-0.212,2.549-0.759,4.764c-2.155,8.618-7.465,26.338-14.748,40.115c-3.308,6.251-3.732,7.04-3.975,7.161l-0.576,0.092
		C49.458,61.129,48.488,60.553,48.488,59.733"/>
	<path fill="#FFFFFF" d="M64.506,39.222c0-3.704,1.76-8.133,3.368-9.832c0.122-0.122,0.334-0.213,0.547-0.213
		c0.758,0,1.577,0.637,1.577,1.364c0,0.668-0.182,0.851-0.485,1.002c-0.91,0.455-2.549,4.704-2.549,8.072
		c0,2.367,0.638,1.699,0.638,2.002c0,0.304-0.425,0.546-0.91,0.546C65.569,42.163,64.506,41.496,64.506,39.222 M68.937,26.628
		c0-0.698,0.879-1.912,1.639-1.974c0.667,0,1.578,0.668,1.578,1.215c0,0.395-0.88,1.031-0.88,1.396c0,0.272,0.243,0.242,0.243,0.667
		c0,0.273-0.121,0.424-0.546,0.424C69.908,28.357,68.937,27.417,68.937,26.628"/>
	<path fill="#FFFFFF" d="M76.219,48.597c0-4.733,5.068-22.789,5.068-22.789c-2.549,5.918-6.1,17.084-7.678,17.174
		c-0.364,0-0.729-0.12-1.123-0.333c-1.032-0.606-1.214-1.548-1.305-2.275C71.06,39.523,71,39.222,71,38.098
		c0-5.461,3.793-18.146,7.617-24.943c0.697-1.153,0.789-1.214,1.153-1.245c0.546,0,1.456,0.729,1.518,1.306
		c0,0.516-4.644,11.318-5.432,13.625C73.791,33,73.518,37.066,73.518,38.765c0,0.577,0.031,0.881,0.031,0.881
		c2.549-4.612,5.887-14.171,14.17-32.104c0.758-1.639,0.91-1.639,1.183-1.669c0.607,0,1.366,0.667,1.457,1.274l-0.85,2.275
		c-4.4,10.105-8.861,25.034-10.681,38.294c-0.122,0.972-0.577,1.882-1.214,1.912C76.947,49.629,76.219,49.234,76.219,48.597"/>
	<path fill="#FFFFFF" d="M81.376,39.979c-0.364-0.151-0.82-0.668-0.82-0.851c0-0.12,0.182-0.454,0.759-0.454
		c0.758,0,2.246,0.546,3.065,0.546c0.637,0,1-0.151,1-0.546c0-1.032-1.547-3.825-1.547-5.705c0-1.974,1.184-5.614,4.126-5.614
		c1.73,0,3.278,1.275,3.278,1.942c0,0.183-0.122,0.395-0.456,0.395c-0.546,0-1.426-0.606-1.881-0.606
		c-1.244,0-2.731,2.852-2.731,4.611c0,1.518,1.639,4.127,1.639,5.584c0,1.032-0.819,1.608-2.792,1.608
		C82.559,40.737,83.804,40.708,81.376,39.979"/>
	<path fill="#FFFFFF" d="M99.733,44.773c0-1.547,0.485-3.064,1.486-4.794c3.217-5.463,8.436-7.041,8.436-7.282
		c0-0.335-0.941-1.942-0.941-3.217c0-2.975,3.732-6.463,7.1-6.463c3.248,0,3.854,2.002,4.278,3.581
		c1.002-1.973,3.946-6.737,4.553-6.737c0.516,0,1.214,0.941,1.214,1.427c0,0.911-1.336,4.005-1.729,4.005l-0.606-0.182
		c-0.184,0.213-1.215,2.064-1.67,3.034c-2.033,4.127-1.486,5.494-2.307,5.494c-0.455,0-1.273-0.668-1.273-1.669
		c0-0.607,0.15-0.941,0.364-1.882c-0.335-0.698-0.547-1.001-0.547-1.73c0-0.576,0.242-1.73,0.242-2.276
		c0-0.637-0.303-0.789-1.305-0.789c-3.034,0-6.493,2.732-6.493,5.22c0,0.972,0.698,1.668,1.001,1.668l1.093-0.121
		c1.609,0,2.731,1.124,2.731,2.246c0,0.668-0.486,0.88-1.245,0.88c-0.789,0-1.243-0.182-2.215-0.547
		c-5.037,1.791-10.256,6.646-10.256,11.168c0,1.82,0.333,4.005,3.004,4.005c2.124,0,4.491-0.697,6.858-3.489
		c0.576-0.698,2.245-3.004,2.67-3.914c-0.698,0.242-3.156,1.122-4.643,1.122c-0.698,0-1.457-0.789-1.457-1.7
		c0-1.607,7.131-2.335,8.224-3.519c0.212-0.242,0.364-0.364,0.516-0.364c0.243,0,0.546,0.334,0.881,0.334
		c0.333,0,1.881-0.396,3.52-0.396c1.518,0,2.063,1.093,2.063,1.852c0,0.426-0.334,0.729-0.638,0.729l-1.123-0.092
		c-0.971,0-3.731,0.486-3.822,0.577c-0.183,0.121-3.703,8.8-8.953,10.712c-0.941,0.333-2.124,0.546-3.095,0.546
		C102.099,52.208,99.733,48.233,99.733,44.773"/>
	<path fill="#FFFFFF" d="M154.289,49.901c0-0.363,0.121-0.667,0.394-1.698c1.366-7.86,4.46-17.023,6.069-22.577h-0.091
		c-1.426,0.151-11.804,3.702-12.017,4.005c-0.213,0.243-3.642,12.319-4.46,15.597c-0.214,0.971-0.426,1.184-0.82,1.214
		c-0.576,0-1.518-0.698-1.547-1.305c0-1.123,4.096-14.231,4.096-14.626c-0.272,0.029-3.854,1.791-6.493,1.973
		c-1.214,0-1.881-0.82-1.912-1.488c0-0.667,1.184-1.061,2.641-1.243l0.879-0.061c0.79-0.091,5.676-1.881,5.705-1.942
		c0.183-0.212,3.732-12.319,4.036-13.503c-1.184,1.639-3.277,5.432-4.461,8.406c-0.333,0.88-0.484,1.033-0.818,1.062
		c-0.456,0-1.548-0.606-1.579-1.335c0-0.606,2.034-4.945,3.611-7.646c1.973-3.368,3.308-4.885,4.157-4.916
		c0.972,0,1.76,0.88,1.79,1.912c0,2.275-4.035,14.777-4.035,15.112h0.03c5.947-1.852,11.834-3.339,12.259-3.339h0.031l2.609-7.313
		c5.917-15.476,3.762-15.628,5.886-15.749c0.577,0,1.396,0.85,1.427,1.82c0,1.7-1.729,5.705-7.404,20.665
		c0.425-0.122,0.941-0.182,1.336-0.182c0.182,0,0.363,0.03,0.485,0.06c0.697,0.274,1.365,1.063,1.396,1.669
		c0,0.516-0.395,0.789-1.001,0.819c-0.455,0-0.82-0.577-1.639-0.577c-0.516,0-0.577,0.091-1.335,0.273
		c-0.304,0.152-5.401,15.385-6.313,25.035l-0.03,0.243c0.03,0.242,0.273,1.183,0.305,1.639c0,0.546-0.82,0.576-1.519,0.576
		C154.956,52.481,154.318,51.814,154.289,49.901"/>
	<path fill="#FFFFFF" d="M162.601,38.554c0-1.366,0.273-3.43,1.214-5.796c0.517-1.336,2.123-5.16,2.73-5.251h0.183
		c0.819,0,1.427,0.607,1.457,1.154c0,0.425-0.243,0.879-0.243,1.305v0.061c-0.03,0.456-0.151,0.697-0.425,0.728
		c-0.364,0.062-1.972,3.824-2.337,6.009c-0.091,0.576-0.213,1.699-0.213,2.246l0.031,0.303c0.303-0.061,3.975-5.098,5.674-8.192
		c1.366-2.488,1.973-3.065,2.671-3.095c0.576,0,1.243,0.394,1.517,1.062v0.061c0,0.182-0.122,0.456-0.455,1.153
		c-1.365,2.913-2.458,10.499-2.608,10.772l-0.518,0.212h-0.09c-0.698,0-1.67-0.606-1.699-1.183c0-0.455,0.303-2.64,0.303-2.671
		c-0.242,0.061-3.58,4.279-4.309,4.4C163.996,41.83,162.601,41.436,162.601,38.554"/>
	<path fill="#FFFFFF" d="M174.556,37.218c0.12-5.675,3.61-9.437,6.463-9.437c2.034,0,2.974,1.062,2.974,2.973
		c0,3.126-2.397,5.615-5.433,5.615c-0.728,0-0.788-0.093-1.456-0.243c-0.09,0.363-0.122,0.94-0.122,1.486
		c0,0.79,0.063,1.548,0.122,1.821c0.212,0.94,0.273,1,0.941,1.062c1.002,0.092,1.881,0.729,1.881,1.396l-0.091,0.271l-0.91,0.153
		C176.375,42.194,174.556,40.98,174.556,37.218 M181.383,31.847c0.151-0.394,0.273-1.365,0.273-1.881l-0.062-0.333
		c-1.183,0.061-3.792,3.885-4.006,4.764l0.062,0.213C178.105,34.608,180.867,33.242,181.383,31.847"/>
	<path fill="#FFFFFF" d="M181.564,39.979c-0.364-0.151-0.819-0.668-0.819-0.851c0-0.12,0.182-0.454,0.759-0.454
		c0.758,0,2.245,0.546,3.064,0.546c0.638,0,1.002-0.151,1.002-0.546c0-1.032-1.549-3.825-1.549-5.705
		c0-1.974,1.185-5.614,4.127-5.614c1.73,0,3.277,1.275,3.277,1.942c0,0.183-0.12,0.395-0.454,0.395
		c-0.546,0-1.427-0.606-1.882-0.606c-1.244,0-2.731,2.852-2.731,4.611c0,1.518,1.639,4.127,1.639,5.584
		c0,1.032-0.819,1.608-2.791,1.608C182.748,40.737,183.992,40.708,181.564,39.979"/>
	<g>
		<path fill="#FFFFFF" d="M69.817,60.558v0.603h-3.693v-5.6h0.636v4.997H69.817z"/>
		<path fill="#FFFFFF" d="M70.793,58.837v-3.276h0.635v3.276c0,1.077,0.71,1.843,1.704,1.843c0.995,0,1.704-0.766,1.704-1.843
			v-3.276h0.636v3.276c0,1.418-0.97,2.421-2.34,2.421C71.763,61.258,70.793,60.255,70.793,58.837z"/>
		<path fill="#FFFFFF" d="M79.398,58.356l2.145,2.804H80.76l-1.753-2.29l-1.752,2.29h-0.775l2.145-2.796l-2.145-2.804h0.783
			l1.753,2.291l1.753-2.291h0.775L79.398,58.356z"/>
		<path fill="#FFFFFF" d="M82.55,58.837v-3.276h0.636v3.276c0,1.077,0.709,1.843,1.704,1.843s1.704-0.766,1.704-1.843v-3.276h0.636
			v3.276c0,1.418-0.97,2.421-2.34,2.421C83.521,61.258,82.55,60.255,82.55,58.837z"/>
		<path fill="#FFFFFF" d="M91.383,59.09l1.452,2.07h-0.726l-1.418-2.014h-1.484v2.014h-0.636v-5.6h2.274
			c1.158,0,2.063,0.742,2.063,1.793C92.908,58.233,92.272,58.903,91.383,59.09z M89.207,58.544h1.524
			c0.914,0,1.533-0.439,1.533-1.19c0-0.75-0.619-1.19-1.533-1.19h-1.524V58.544z"/>
		<path fill="#FFFFFF" d="M95.343,58.878l-2.258-3.317h0.791l1.802,2.715l1.818-2.715h0.766l-2.25,3.317v2.282h-0.669V58.878z"/>
		<path fill="#FFFFFF" d="M101.534,55.561h0.636l2.079,3.905l2.079-3.905h0.636v5.6h-0.636v-4.23l-2.079,3.904l-2.079-3.904v4.23
			h-0.636V55.561z"/>
		<path fill="#FFFFFF" d="M109.015,56.163v1.843h3.041v0.604h-3.041v1.948h3.376v0.603h-4.021v-5.6h4.021v0.603H109.015z"/>
		<path fill="#FFFFFF" d="M114.122,56.163v1.843h3.042v0.604h-3.042v1.948h3.376v0.603h-4.02v-5.6h4.02v0.603H114.122z"/>
		<path fill="#FFFFFF" d="M120.193,56.163h-1.883v-0.603h4.402v0.603h-1.883v4.997h-0.637V56.163z"/>
		<path fill="#FFFFFF" d="M123.451,60.361l0.4-0.497c0.473,0.473,1.051,0.807,1.833,0.807c0.863,0,1.305-0.472,1.305-0.979
			c0-0.595-0.529-0.831-1.508-1.059c-1.125-0.261-1.835-0.612-1.835-1.582c0-0.896,0.8-1.598,1.875-1.598
			c0.832,0,1.451,0.326,1.965,0.799l-0.392,0.497c-0.464-0.447-1.019-0.717-1.605-0.717c-0.692,0-1.198,0.457-1.198,0.969
			c0,0.581,0.555,0.783,1.509,1.012c1.067,0.253,1.834,0.636,1.834,1.623c0,0.888-0.669,1.614-1.974,1.614
			C124.739,61.251,124.014,60.916,123.451,60.361z"/>
		<path fill="#FFFFFF" d="M134.681,60.558v0.603h-3.693v-5.6h0.637v4.997H134.681z"/>
		<path fill="#FFFFFF" d="M135.38,58.356c0-1.573,1.321-2.894,2.87-2.894c1.557,0,2.861,1.32,2.861,2.894
			c0,1.572-1.305,2.901-2.861,2.901C136.701,61.258,135.38,59.929,135.38,58.356z M140.467,58.356c0-1.247-1.012-2.308-2.217-2.308
			c-1.207,0-2.227,1.061-2.227,2.308c0,1.256,1.02,2.314,2.227,2.314C139.455,60.671,140.467,59.612,140.467,58.356z"/>
		<path fill="#FFFFFF" d="M142.232,58.837v-3.276h0.635v3.276c0,1.077,0.71,1.843,1.705,1.843c0.994,0,1.703-0.766,1.703-1.843
			v-3.276h0.637v3.276c0,1.418-0.971,2.421-2.34,2.421C143.201,61.258,142.232,60.255,142.232,58.837z"/>
		<path fill="#FFFFFF" d="M148.375,55.561h0.636l3.474,4.557v-4.557h0.635v5.6h-0.635l-3.474-4.557v4.557h-0.636V55.561z"/>
		<path fill="#FFFFFF" d="M157.11,58.21h2.242v2.191c-0.521,0.522-1.402,0.856-2.176,0.856c-1.549,0-2.87-1.329-2.87-2.901
			c0-1.573,1.321-2.894,2.87-2.894c0.773,0,1.654,0.325,2.176,0.855l-0.432,0.44c-0.408-0.433-1.133-0.71-1.744-0.71
			c-1.207,0-2.227,1.061-2.227,2.308c0,1.256,1.02,2.314,2.227,2.314c0.521,0,1.124-0.203,1.541-0.521v-1.337h-1.607V58.21z"/>
		<path fill="#FFFFFF" d="M160.597,55.561h0.637v5.6h-0.637V55.561z"/>
		<path fill="#FFFFFF" d="M162.642,55.561h0.637l3.473,4.557v-4.557h0.635v5.6h-0.635l-3.473-4.557v4.557h-0.637V55.561z"/>
		<path fill="#FFFFFF" d="M171.378,58.21h2.241v2.191c-0.521,0.522-1.4,0.856-2.176,0.856c-1.549,0-2.869-1.329-2.869-2.901
			c0-1.573,1.32-2.894,2.869-2.894c0.775,0,1.655,0.325,2.176,0.855l-0.433,0.44c-0.406-0.433-1.132-0.71-1.743-0.71
			c-1.208,0-2.226,1.061-2.226,2.308c0,1.256,1.018,2.314,2.226,2.314c0.521,0,1.124-0.203,1.54-0.521v-1.337h-1.605V58.21z"/>
	</g>
</g>
</svg>
