<?xml version="1.0" encoding="utf-8"?>
<!-- Generator: Adobe Illustrator 16.0.0, SVG Export Plug-In . SVG Version: 6.00 Build 0)  -->
<!DOCTYPE svg PUBLIC "-//W3C//DTD SVG 1.1//EN" "http://www.w3.org/Graphics/SVG/1.1/DTD/svg11.dtd">
<svg version="1.1" id="Layer_1" xmlns="http://www.w3.org/2000/svg" xmlns:xlink="http://www.w3.org/1999/xlink" x="0px" y="0px"
	 width="292.32px" height="57.6px" viewBox="-36.16 1.2 292.32 57.6" enable-background="new -36.16 1.2 292.32 57.6"
	 xml:space="preserve">
<polygon points="-27.743,10.178 -21.999,10.152 -12.775,20.689 -3.775,10.066 1.969,10.04 2.112,40.495 -3.881,40.523 
	-3.977,20.027 -12.692,29.82 -21.664,20.068 -21.568,40.605 -27.601,40.634 "/>
<rect x="8.654" y="9.995" transform="matrix(-1 0.0046 -0.0046 -1 23.4561 50.3912)" width="6.033" height="30.456"/>
<polygon points="21.228,9.95 27.261,9.922 27.376,34.469 42.418,34.397 42.445,40.307 21.37,40.405 "/>
<polygon points="46.023,9.834 52.056,9.806 52.17,34.353 67.212,34.282 67.24,40.191 46.165,40.289 "/>
<g>
	<defs>
		
			<rect id="SVGID_1_" x="-54.188" y="-78.371" transform="matrix(-1 0.0047 -0.0047 -1 216.4702 71.3292)" width="324.68" height="228.576"/>
	</defs>
	<clipPath id="SVGID_2_">
		<use xlink:href="#SVGID_1_"  overflow="visible"/>
	</clipPath>
	<path clip-path="url(#SVGID_2_)" d="M99.75,37.146c-2.797,2.658-5.933,3.954-9.486,3.971c-6.157,0.029-10.639-4.001-10.665-9.62
		c-0.013-2.728,1.086-6.41,6.156-9.038c-1.29-1.771-2.083-3.544-2.094-5.9c-0.023-4.793,3.886-8.406,9.093-8.431
		c4.876-0.023,8.571,3.431,8.592,8.018c0.017,3.553-1.914,6.29-5.749,8.168l3.904,3.948c0.82-1.409,1.639-2.983,2.373-4.763
		l0.574-1.366l5.384,2.454l-0.615,1.326c-1.268,2.775-2.414,4.887-3.564,6.585l5.399,5.473l-4.819,3.698L99.75,37.146z
		 M95.722,33.033l-6.146-6.294c-2.433,1.128-3.748,2.744-3.739,4.603c0.011,2.398,1.92,4.085,4.647,4.071
		C92.303,35.405,94.035,34.651,95.722,33.033 M95.355,16.339c-0.007-1.528-1.129-2.639-2.7-2.631
		c-1.777,0.008-2.969,1.17-2.962,2.823c0.005,1.075,0.298,1.9,1.919,3.71C94.912,18.946,95.361,17.497,95.355,16.339"/>
	<polygon clip-path="url(#SVGID_2_)" points="124.21,9.469 130.243,9.441 130.3,21.673 143.441,21.612 143.385,9.38 149.376,9.352 
		149.518,39.807 143.526,39.835 143.47,27.563 130.328,27.624 130.385,39.896 124.353,39.924 	"/>
	<path clip-path="url(#SVGID_2_)" d="M159.38,36.29c-2.45-2.47-3.705-5.81-3.724-9.818l-0.08-17.149l6.033-0.028l0.08,17.232
		c0.013,2.562,0.764,4.458,2.219,5.857c1.243,1.193,2.856,1.723,4.925,1.713c2.065-0.01,3.717-0.554,4.991-1.759
		c1.44-1.37,2.176-3.276,2.163-5.878l-0.08-17.232l5.991-0.028l0.08,17.149c0.019,4.008-1.205,7.32-3.632,9.852
		c-2.427,2.533-5.602,3.827-9.485,3.846C165.058,40.064,161.87,38.8,159.38,36.29"/>
	<polygon clip-path="url(#SVGID_2_)" points="186.559,33.725 203.711,33.645 203.682,27.281 191.242,27.339 191.214,21.389 
		203.653,21.331 203.624,14.966 186.472,15.046 186.444,9.179 209.629,9.07 209.771,39.525 186.587,39.634 	"/>
	<path clip-path="url(#SVGID_2_)" d="M218.893,36.879c-2.119-1.683-3.284-4.073-3.629-7.13l-0.173-1.612l6.198-0.029l0.09,1.363
		c0.089,1.406,0.756,2.434,2.039,3.174c1.284,0.734,3.021,1.06,5.253,1.05c6.281-0.029,6.271-2.51,6.266-3.418
		c-0.002-0.662-0.21-1.074-0.751-1.443c-0.831-0.575-1.863-1.025-3.105-1.391c-1.367-0.406-2.854-0.731-4.469-1.095
		c-1.695-0.364-3.268-0.894-4.759-1.466c-1.572-0.612-2.94-1.475-3.978-2.543c-1.246-1.192-1.832-2.801-1.842-4.784
		c-0.012-2.687,1.011-4.922,3.069-6.627c1.977-1.621,4.904-2.461,8.706-2.479c3.803-0.018,6.865,0.877,9.063,2.686
		c2.033,1.644,3.2,3.828,3.336,6.472l0.089,1.529l-6.032,0.028l-0.172-1.28c-0.127-1.033-0.631-2.477-3.362-3.291
		c-0.827-0.243-1.902-0.363-3.142-0.358c-1.241,0.006-2.273,0.136-3.099,0.429c-0.743,0.251-1.319,0.543-1.73,0.876
		c-0.329,0.29-0.536,0.581-0.614,0.911c-0.123,0.373-0.204,0.828-0.203,1.325c0.001,0.082,0.002,0.289,0.376,0.659
		c0.416,0.411,0.996,0.738,1.698,1.025c0.829,0.327,1.781,0.611,2.857,0.896c1.116,0.285,2.276,0.486,3.474,0.81
		c1.2,0.326,2.399,0.609,3.602,1.017c1.241,0.408,2.359,0.981,3.354,1.596c2.362,1.477,3.653,3.662,3.665,6.305
		c0.016,3.1-1.171,5.503-3.479,7.124c-2.182,1.539-5.154,2.339-8.831,2.355C224.483,39.581,221.174,38.688,218.893,36.879"/>
	<polygon clip-path="url(#SVGID_2_)" fill="#EB2227" points="29.294,48.452 30.242,48.447 30.26,52.147 32.614,52.138 
		32.618,53.068 29.316,53.083 	"/>
	<path clip-path="url(#SVGID_2_)" fill="#EB2227" d="M36.505,48.425l0.94-0.005l0.012,2.584c0.002,0.615,0.508,1.113,1.13,1.11
		c0.622-0.004,1.122-0.505,1.12-1.12l-0.012-2.584l0.94-0.005l0.012,2.584c0.005,1.131-0.915,2.051-2.056,2.056
		s-2.07-0.905-2.075-2.036L36.505,48.425z"/>
	<polygon clip-path="url(#SVGID_2_)" fill="#EB2227" points="48.575,48.362 47.013,50.687 48.597,52.993 47.447,52.998 
		46.444,51.533 45.453,53.008 44.306,53.013 45.866,50.691 44.285,48.382 45.432,48.377 46.436,49.842 47.426,48.368 	"/>
	<path clip-path="url(#SVGID_2_)" fill="#EB2227" d="M52.221,48.352l0.941-0.005l0.012,2.584c0.003,0.615,0.509,1.112,1.13,1.11
		c0.622-0.003,1.123-0.506,1.12-1.121l-0.012-2.584l0.94-0.004l0.012,2.584c0.005,1.131-0.915,2.05-2.056,2.056
		c-1.141,0.005-2.07-0.905-2.076-2.036L52.221,48.352z"/>
	<path clip-path="url(#SVGID_2_)" fill="#EB2227" d="M62.491,48.297c0.877-0.004,1.591,0.703,1.595,1.581
		c0.003,0.668-0.408,1.241-0.991,1.479l1.326,1.563l-1.217,0.006l-1.231-1.452l-0.761,0.004l0.007,1.458l-0.932,0.004l-0.022-4.631
		C61.114,48.304,61.641,48.302,62.491,48.297 M62.501,50.538c0.362-0.001,0.654-0.294,0.652-0.655
		c-0.001-0.363-0.296-0.656-0.659-0.655l-1.294,0.007l0.006,1.311L62.501,50.538z"/>
	<polygon clip-path="url(#SVGID_2_)" fill="#EB2227" points="69.181,48.266 70.196,49.802 71.199,48.257 72.334,48.251 
		70.681,50.802 70.691,52.89 69.732,52.894 69.722,50.806 68.044,48.271 	"/>
	<polygon clip-path="url(#SVGID_2_)" fill="#EB2227" points="84.725,49.887 86.073,48.188 87.033,48.183 87.054,52.813 
		86.123,52.818 86.108,49.644 84.732,51.379 83.34,49.656 83.354,52.831 82.424,52.836 82.402,48.205 83.363,48.2 	"/>
	<polygon clip-path="url(#SVGID_2_)" fill="#EB2227" points="90.943,48.162 94.245,48.146 94.25,49.077 91.896,49.089 91.9,50.007 
		94.01,49.997 94.015,50.93 91.905,50.939 91.909,51.858 94.263,51.847 94.267,52.775 90.965,52.791 	"/>
	<polygon clip-path="url(#SVGID_2_)" fill="#EB2227" points="98.153,48.129 101.457,48.113 101.461,49.044 99.107,49.055 
		99.112,49.973 101.22,49.963 101.225,50.896 99.116,50.905 99.121,51.824 101.474,51.813 101.479,52.742 98.175,52.757 	"/>
	<polygon clip-path="url(#SVGID_2_)" fill="#EB2227" points="105.364,48.097 109.161,48.08 109.166,49.011 107.744,49.017 
		107.761,52.717 106.806,52.721 106.789,49.021 105.369,49.027 	"/>
	<path clip-path="url(#SVGID_2_)" fill="#EB2227" d="M114.612,51.806c0.326-0.004,0.935-0.057,0.932-0.501
		c-0.001-0.419-0.654-0.444-0.935-0.465c-0.885-0.065-1.928-0.207-1.934-1.359c-0.005-1.023,1.036-1.527,1.918-1.474
		c0.801,0.048,1.346,0.351,1.769,1.037l-0.778,0.482c-0.225-0.357-0.572-0.543-0.983-0.581c-0.342-0.036-0.919,0.08-0.917,0.53
		c0.002,0.42,0.632,0.433,0.919,0.453c0.929,0.062,1.94,0.265,1.945,1.371c0.006,1.092-1.027,1.433-1.931,1.438
		c-0.946,0.004-1.737-0.343-2.2-1.221l0.798-0.492C113.5,51.576,114.018,51.809,114.612,51.806"/>
	<polygon clip-path="url(#SVGID_2_)" fill="#EB2227" points="126.534,47.998 127.483,47.994 127.501,51.694 129.855,51.683 
		129.86,52.613 126.556,52.629 	"/>
	<path clip-path="url(#SVGID_2_)" fill="#EB2227" d="M135.863,47.955c1.278-0.007,2.319,1.027,2.325,2.306
		c0.006,1.277-1.025,2.318-2.304,2.325c-1.279,0.006-2.321-1.027-2.327-2.305C133.552,49.003,134.584,47.961,135.863,47.955
		 M134.489,50.277c0.004,0.764,0.626,1.381,1.391,1.378c0.765-0.004,1.382-0.627,1.378-1.391c-0.004-0.767-0.625-1.383-1.39-1.379
		C135.104,48.889,134.485,49.511,134.489,50.277"/>
	<path clip-path="url(#SVGID_2_)" fill="#EB2227" d="M141.888,47.933l0.94-0.005l0.012,2.584c0.003,0.615,0.508,1.113,1.13,1.11
		c0.621-0.004,1.124-0.505,1.121-1.12l-0.012-2.584l0.94-0.005l0.012,2.584c0.005,1.131-0.915,2.051-2.057,2.056
		s-2.07-0.905-2.075-2.036L141.888,47.933z"/>
	<polygon clip-path="url(#SVGID_2_)" fill="#EB2227" points="149.933,47.889 150.871,47.885 153.138,50.925 153.122,47.874 
		154.063,47.87 154.086,52.501 153.145,52.505 150.879,49.463 150.894,52.516 149.955,52.52 	"/>
	<path clip-path="url(#SVGID_2_)" fill="#EB2227" d="M162.161,48.628l-0.679,0.663c-0.262-0.319-0.666-0.521-1.118-0.521
		c-0.787,0.004-1.422,0.627-1.418,1.394c0.004,0.764,0.644,1.38,1.431,1.376c0.363-0.001,0.695-0.136,0.946-0.354l-0.001-0.456
		l-0.948,0.004l-0.005-0.932l1.906-0.009l0.008,1.743c-0.432,0.565-1.121,0.932-1.901,0.935c-1.317,0.007-2.389-1.024-2.395-2.303
		c-0.006-1.277,1.055-2.321,2.372-2.328C161.076,47.837,161.722,48.143,162.161,48.628"/>
	<rect x="166.182" y="47.811" clip-path="url(#SVGID_2_)" fill="#EB2227" width="0.979" height="4.631"/>
	<polygon clip-path="url(#SVGID_2_)" fill="#EB2227" points="171.059,47.79 171.996,47.786 174.263,50.826 174.248,47.775 
		175.189,47.771 175.212,52.402 174.271,52.406 172.004,49.364 172.019,52.417 171.081,52.421 	"/>
	<path clip-path="url(#SVGID_2_)" fill="#EB2227" d="M183.286,48.529l-0.675,0.663c-0.264-0.319-0.667-0.522-1.12-0.521
		c-0.788,0.005-1.423,0.626-1.42,1.393c0.004,0.764,0.645,1.381,1.433,1.377c0.364-0.002,0.695-0.135,0.945-0.354l-0.002-0.456
		l-0.947,0.004l-0.005-0.932l1.907-0.009l0.008,1.743c-0.431,0.565-1.122,0.932-1.901,0.935c-1.317,0.006-2.389-1.024-2.395-2.303
		c-0.005-1.277,1.055-2.322,2.372-2.328C182.202,47.739,182.848,48.044,183.286,48.529"/>
</g>
</svg>
