<?xml version="1.0" encoding="utf-8"?>
<!-- Generator: Adobe Illustrator 16.0.0, SVG Export Plug-In . SVG Version: 6.00 Build 0)  -->
<!DOCTYPE svg PUBLIC "-//W3C//DTD SVG 1.1//EN" "http://www.w3.org/Graphics/SVG/1.1/DTD/svg11.dtd">
<svg version="1.1" id="Layer_1" xmlns="http://www.w3.org/2000/svg" xmlns:xlink="http://www.w3.org/1999/xlink" x="0px" y="0px"
	 width="292.32px" height="108px" viewBox="-36.16 -24 292.32 108" enable-background="new -36.16 -24 292.32 108"
	 xml:space="preserve">
<path fill="#231F20" d="M-0.179,79.881c0.365,0,10.792-17.258,17.832-36.081C22.397,30.922,32.095,1.202,32.929-9.644
	C18.122-6.567,1.593,38.378-6.332,43.8c-0.625,0.365-1.042,0.626-2.033,0.626c-2.451-0.052-4.275-1.251-4.275-5.371
	c0.104-5.787,4.796-21.533,4.849-22.472c-0.105,0.364-7.092,12.617-9.855,18.404c-4.067,8.656-4.067,12.462-4.275,14.704
	c0.573,0.521,0.938,0.782,0.938,1.408c-0.052,0.677-0.938,1.094-1.877,1.094c-1.825-0.051-3.597-0.885-3.597-4.119
	C-26.249,35.927-5.602,3.496-2.89,3.496l1.512-0.208c0.73,0,2.033,0.313,3.024,2.503l0.521,1.511
	C2.115,8.137,0.863,9.597,0.029,9.597c-0.208,0-0.26,0-0.365,0.26c-5.996,14.912-7.56,25.236-7.612,28.416
	c1.356,0,16.32-28.311,23.619-38.322c6.257-8.551,12.096-13.296,16.424-13.296c3.024,0.054,5.058,1.981,5.058,6.102
	c-0.053,2.242-0.365,4.379-1.304,8.186c-3.702,14.808-12.826,45.256-25.34,68.929c-5.683,10.739-6.413,12.096-6.83,12.305
	l-0.99,0.156C1.489,82.278-0.179,81.288-0.179,79.881"/>
<path fill="#231F20" d="M27.346,44.635c0-6.362,3.024-13.974,5.787-16.894c0.209-0.209,0.574-0.365,0.939-0.365
	c1.303,0,2.711,1.095,2.711,2.346c0,1.147-0.313,1.46-0.834,1.722c-1.564,0.781-4.38,8.08-4.38,13.868
	c0,4.067,1.095,2.919,1.095,3.441c0,0.521-0.73,0.938-1.564,0.938C29.171,49.69,27.346,48.545,27.346,44.635 M34.958,22.996
	c0-1.199,1.512-3.285,2.816-3.39c1.147,0,2.711,1.147,2.711,2.087c0,0.678-1.512,1.771-1.512,2.397c0,0.469,0.417,0.417,0.417,1.147
	c0,0.469-0.208,0.729-0.938,0.729C36.626,25.968,34.958,24.352,34.958,22.996"/>
<path fill="#231F20" d="M47.47,60.745c0-8.134,8.708-39.157,8.708-39.157c-4.38,10.168-10.48,29.355-13.192,29.511
	c-0.625,0-1.251-0.208-1.929-0.572c-1.773-1.043-2.086-2.659-2.242-3.911c-0.209-1.46-0.313-1.98-0.313-3.91
	c0-9.385,6.517-31.18,13.087-42.859c1.199-1.98,1.356-2.085,1.982-2.138c0.938,0,2.502,1.252,2.607,2.243
	c0,0.886-7.978,19.447-9.333,23.41c-3.546,10.584-4.015,17.571-4.015,20.49c0,0.991,0.052,1.513,0.052,1.513
	c4.38-7.925,10.115-24.35,24.349-55.163c1.303-2.816,1.564-2.816,2.033-2.868c1.043,0,2.347,1.146,2.503,2.19l-1.46,3.909
	c-7.56,17.363-15.225,43.016-18.353,65.801c-0.209,1.669-0.991,3.232-2.086,3.284C48.721,62.518,47.47,61.841,47.47,60.745"/>
<path fill="#231F20" d="M56.332,45.938c-0.625-0.261-1.408-1.146-1.408-1.46c0-0.208,0.313-0.781,1.304-0.781
	c1.303,0,3.858,0.938,5.266,0.938c1.095,0,1.72-0.26,1.72-0.938c0-1.774-2.659-6.571-2.659-9.803c0-3.39,2.034-9.646,7.091-9.646
	c2.972,0,5.631,2.19,5.631,3.337c0,0.313-0.208,0.679-0.782,0.679c-0.938,0-2.451-1.043-3.232-1.043c-2.138,0-4.693,4.9-4.693,7.925
	c0,2.606,2.816,7.092,2.816,9.594c0,1.773-1.408,2.763-4.797,2.763C58.365,47.241,60.503,47.189,56.332,45.938"/>
<path fill="#231F20" d="M87.873,54.176c0-2.659,0.834-5.267,2.555-8.238c5.527-9.386,14.495-12.096,14.495-12.513
	c0-0.574-1.617-3.337-1.617-5.527c0-5.11,6.413-11.105,12.201-11.105c5.579,0,6.621,3.44,7.351,6.152
	c1.722-3.39,6.779-11.576,7.822-11.576c0.887,0,2.086,1.617,2.086,2.451c0,1.564-2.295,6.882-2.973,6.882l-1.043-0.313
	c-0.313,0.366-2.085,3.546-2.867,5.214c-3.494,7.092-2.555,9.438-3.963,9.438c-0.782,0-2.189-1.147-2.189-2.868
	c0-1.043,0.26-1.616,0.625-3.233c-0.574-1.199-0.938-1.72-0.938-2.972c0-0.99,0.417-2.973,0.417-3.91
	c0-1.095-0.521-1.356-2.242-1.356c-5.214,0-11.157,4.693-11.157,8.969c0,1.669,1.199,2.867,1.72,2.867l1.877-0.209
	c2.764,0,4.693,1.931,4.693,3.859c0,1.147-0.834,1.512-2.138,1.512c-1.356,0-2.138-0.313-3.806-0.938
	c-8.655,3.077-17.623,11.419-17.623,19.187c0,3.129,0.573,6.884,5.162,6.884c3.649,0,7.716-1.199,11.783-5.996
	c0.991-1.199,3.858-5.162,4.588-6.726c-1.199,0.417-5.422,1.928-7.978,1.928c-1.199,0-2.503-1.354-2.503-2.92
	c0-2.763,12.253-4.014,14.13-6.047c0.365-0.417,0.626-0.626,0.888-0.626c0.416,0,0.938,0.573,1.512,0.573
	c0.572,0,3.231-0.678,6.048-0.678c2.606,0,3.545,1.877,3.545,3.181c0,0.73-0.573,1.252-1.095,1.252l-1.93-0.158
	c-1.668,0-6.412,0.835-6.568,0.992c-0.313,0.208-6.362,15.12-15.382,18.405c-1.616,0.573-3.65,0.938-5.318,0.938
	C91.94,66.949,87.873,60.119,87.873,54.176"/>
<path fill="#231F20" d="M181.614,62.987c0-0.625,0.209-1.146,0.678-2.92c2.346-13.504,7.664-29.25,10.427-38.791h-0.155
	c-2.45,0.26-20.282,6.359-20.647,6.882c-0.365,0.417-6.257,21.169-7.664,26.8c-0.366,1.668-0.73,2.033-1.409,2.086
	c-0.989,0-2.605-1.2-2.658-2.243c0-1.929,7.038-24.453,7.038-25.131c-0.468,0.052-6.62,3.076-11.156,3.39
	c-2.086,0-3.233-1.408-3.285-2.556c0-1.146,2.033-1.825,4.536-2.138l1.512-0.104c1.355-0.155,9.75-3.232,9.803-3.337
	c0.313-0.364,6.413-21.168,6.935-23.202c-2.034,2.816-5.632,9.333-7.665,14.443c-0.573,1.512-0.834,1.773-1.407,1.824
	c-0.782,0-2.659-1.042-2.712-2.294c0-1.042,3.494-8.498,6.205-13.14c3.389-5.786,5.683-8.394,7.143-8.445
	c1.669,0,3.024,1.512,3.076,3.285c0,3.909-6.935,25.391-6.935,25.965h0.053c10.219-3.182,20.334-5.735,21.063-5.735h0.053
	l4.484-12.565c10.167-26.592,6.464-26.853,10.114-27.061c0.991,0,2.398,1.46,2.451,3.128c0,2.92-2.972,9.802-12.722,35.507
	c0.729-0.209,1.616-0.313,2.294-0.313c0.313,0,0.625,0.052,0.834,0.104c1.198,0.471,2.347,1.825,2.398,2.868
	c0,0.886-0.678,1.356-1.721,1.408c-0.782,0-1.408-0.991-2.815-0.991c-0.887,0-0.99,0.156-2.294,0.469
	c-0.521,0.262-9.281,26.436-10.846,43.017l-0.052,0.417c0.052,0.417,0.47,2.033,0.521,2.814c0,0.939-1.409,0.991-2.607,0.991
	C182.761,67.419,181.666,66.272,181.614,62.987"/>
<path fill="#231F20" d="M195.896,43.487c0-2.348,0.47-5.893,2.086-9.959c0.886-2.294,3.648-8.864,4.691-9.021h0.313
	c1.408,0,2.451,1.043,2.503,1.981c0,0.729-0.417,1.512-0.417,2.242v0.104c-0.052,0.782-0.261,1.199-0.73,1.251
	c-0.625,0.104-3.389,6.569-4.015,10.323c-0.157,0.991-0.365,2.921-0.365,3.859l0.053,0.521c0.521-0.104,6.83-8.76,9.75-14.078
	c2.347-4.275,3.389-5.267,4.588-5.318c0.991,0,2.138,0.678,2.606,1.824v0.104c0,0.313-0.209,0.783-0.781,1.981
	c-2.346,5.006-4.224,18.04-4.483,18.51l-0.887,0.364h-0.156c-1.199,0-2.868-1.043-2.92-2.032c0-0.782,0.521-4.536,0.521-4.59
	c-0.417,0.105-6.151,7.354-7.403,7.562C198.294,49.118,195.896,48.44,195.896,43.487"/>
<path fill="#231F20" d="M216.438,41.193c0.208-9.75,6.204-16.216,11.105-16.216c3.494,0,5.109,1.824,5.109,5.109
	c0,5.37-4.118,9.646-9.334,9.646c-1.251,0-1.354-0.157-2.502-0.417c-0.155,0.625-0.209,1.616-0.209,2.555
	c0,1.355,0.105,2.659,0.209,3.128c0.365,1.616,0.47,1.72,1.617,1.825c1.721,0.156,3.232,1.251,3.232,2.398l-0.156,0.469
	l-1.564,0.261C219.564,49.744,216.438,47.658,216.438,41.193 M228.169,31.964c0.261-0.678,0.47-2.346,0.47-3.232l-0.104-0.573
	c-2.033,0.104-6.518,6.674-6.884,8.185l0.105,0.366C222.538,36.709,227.282,34.362,228.169,31.964"/>
<path fill="#231F20" d="M228.48,45.938c-0.625-0.261-1.407-1.146-1.407-1.46c0-0.208,0.313-0.781,1.303-0.781
	c1.304,0,3.859,0.938,5.267,0.938c1.095,0,1.721-0.26,1.721-0.938c0-1.774-2.659-6.571-2.659-9.803c0-3.39,2.033-9.646,7.09-9.646
	c2.973,0,5.632,2.19,5.632,3.337c0,0.313-0.208,0.679-0.781,0.679c-0.938,0-2.451-1.043-3.233-1.043c-2.138,0-4.692,4.9-4.692,7.925
	c0,2.606,2.815,7.092,2.815,9.594c0,1.773-1.408,2.763-4.797,2.763C230.515,47.241,232.652,47.189,228.48,45.938"/>
<g>
	<path d="M36.471,81.296v1.036h-6.346v-9.623h1.093v8.587H36.471z"/>
	<path d="M38.147,78.34v-5.631h1.092v5.631c0,1.85,1.219,3.166,2.928,3.166s2.928-1.316,2.928-3.166v-5.631h1.093v5.631
		c0,2.438-1.667,4.16-4.021,4.16S38.147,80.777,38.147,78.34z"/>
	<path d="M52.934,77.514l3.685,4.818h-1.345l-3.012-3.936l-3.012,3.936h-1.331l3.684-4.805l-3.684-4.818h1.345l3.012,3.937
		l3.012-3.937h1.331L52.934,77.514z"/>
	<path d="M58.35,78.34v-5.631h1.092v5.631c0,1.85,1.219,3.166,2.928,3.166s2.928-1.316,2.928-3.166v-5.631h1.093v5.631
		c0,2.438-1.667,4.16-4.021,4.16S58.35,80.777,58.35,78.34z"/>
	<path d="M73.527,78.774l2.493,3.558h-1.247l-2.437-3.459h-2.55v3.459h-1.093v-9.623h3.908c1.989,0,3.544,1.275,3.544,3.082
		C76.146,77.304,75.054,78.453,73.527,78.774z M69.787,77.836h2.619c1.569,0,2.634-0.756,2.634-2.045s-1.064-2.045-2.634-2.045
		h-2.619V77.836z"/>
	<path d="M80.33,78.41l-3.88-5.701h1.359l3.096,4.665l3.123-4.665h1.316l-3.865,5.701v3.922H80.33V78.41z"/>
	<path d="M90.969,72.709h1.093l3.572,6.71l3.571-6.71h1.093v9.623h-1.093v-7.27l-3.571,6.709l-3.572-6.709v7.27h-1.093V72.709z"/>
	<path d="M103.821,73.746v3.166h5.226v1.036h-5.226v3.348h5.8v1.036h-6.906v-9.623h6.906v1.037H103.821z"/>
	<path d="M112.599,73.746v3.166h5.226v1.036h-5.226v3.348h5.8v1.036h-6.906v-9.623h6.906v1.037H112.599z"/>
	<path d="M123.03,73.746h-3.236v-1.037h7.564v1.037h-3.235v8.586h-1.093V73.746z"/>
	<path d="M128.628,80.96l0.687-0.854c0.813,0.813,1.807,1.387,3.151,1.387c1.484,0,2.241-0.813,2.241-1.682
		c0-1.021-0.91-1.428-2.592-1.82c-1.933-0.448-3.151-1.051-3.151-2.717c0-1.541,1.373-2.746,3.222-2.746
		c1.429,0,2.493,0.561,3.376,1.373l-0.673,0.854c-0.798-0.77-1.751-1.232-2.759-1.232c-1.19,0-2.06,0.785-2.06,1.667
		c0,0.995,0.953,1.345,2.592,1.737c1.835,0.434,3.151,1.092,3.151,2.787c0,1.527-1.148,2.773-3.39,2.773
		C130.841,82.486,129.595,81.912,128.628,80.96z"/>
	<path d="M147.924,81.296v1.036h-6.346v-9.623h1.093v8.587H147.924z"/>
	<path d="M149.124,77.514c0-2.703,2.27-4.973,4.931-4.973c2.676,0,4.917,2.27,4.917,4.973s-2.241,4.986-4.917,4.986
		C151.394,82.5,149.124,80.217,149.124,77.514z M157.864,77.514c0-2.143-1.736-3.964-3.81-3.964s-3.824,1.821-3.824,3.964
		c0,2.157,1.751,3.979,3.824,3.979S157.864,79.671,157.864,77.514z"/>
	<path d="M160.898,78.34v-5.631h1.092v5.631c0,1.85,1.219,3.166,2.928,3.166s2.928-1.316,2.928-3.166v-5.631h1.093v5.631
		c0,2.438-1.667,4.16-4.021,4.16S160.898,80.777,160.898,78.34z"/>
	<path d="M171.453,72.709h1.093l5.968,7.83v-7.83h1.092v9.623h-1.092l-5.968-7.83v7.83h-1.093V72.709z"/>
	<path d="M186.464,77.262h3.853v3.768c-0.896,0.896-2.409,1.471-3.74,1.471c-2.661,0-4.931-2.283-4.931-4.986
		s2.27-4.973,4.931-4.973c1.331,0,2.844,0.561,3.74,1.471l-0.743,0.757c-0.7-0.743-1.946-1.219-2.997-1.219
		c-2.073,0-3.824,1.821-3.824,3.964c0,2.157,1.751,3.979,3.824,3.979c0.896,0,1.933-0.35,2.647-0.896v-2.297h-2.76V77.262z"/>
	<path d="M192.453,72.709h1.093v9.623h-1.093V72.709z"/>
	<path d="M195.967,72.709h1.093l5.968,7.83v-7.83h1.092v9.623h-1.092l-5.968-7.83v7.83h-1.093V72.709z"/>
	<path d="M210.978,77.262h3.853v3.768c-0.896,0.896-2.409,1.471-3.74,1.471c-2.661,0-4.931-2.283-4.931-4.986
		s2.27-4.973,4.931-4.973c1.331,0,2.844,0.561,3.74,1.471l-0.743,0.757c-0.7-0.743-1.946-1.219-2.997-1.219
		c-2.073,0-3.824,1.821-3.824,3.964c0,2.157,1.751,3.979,3.824,3.979c0.896,0,1.933-0.35,2.647-0.896v-2.297h-2.76V77.262z"/>
</g>
</svg>
