<?xml version="1.0" encoding="utf-8"?>
<!-- Generator: Adobe Illustrator 16.0.0, SVG Export Plug-In . SVG Version: 6.00 Build 0)  -->
<!DOCTYPE svg PUBLIC "-//W3C//DTD SVG 1.1//EN" "http://www.w3.org/Graphics/SVG/1.1/DTD/svg11.dtd">
<svg version="1.1" id="Layer_1" xmlns="http://www.w3.org/2000/svg" xmlns:xlink="http://www.w3.org/1999/xlink" x="0px" y="0px"
	 width="292.32px" height="57.6px" viewBox="-36.16 1.2 292.32 57.6" enable-background="new -36.16 1.2 292.32 57.6"
	 xml:space="preserve">
<polygon fill="#FFFFFF" points="-27.621,9.544 -21.877,9.544 -12.703,20.125 -3.653,9.544 2.091,9.544 2.091,40 -3.902,40 
	-3.902,19.504 -12.662,29.256 -21.588,19.462 -21.588,40 -27.621,40 "/>
<rect x="8.705" y="9.544" fill="#FFFFFF" width="6.033" height="30.456"/>
<polygon fill="#FFFFFF" points="21.35,9.544 27.383,9.544 27.383,34.091 42.426,34.091 42.426,40 21.35,40 "/>
<polygon fill="#FFFFFF" points="46.146,9.544 52.178,9.544 52.178,34.091 67.22,34.091 67.22,40 46.146,40 "/>
<g>
	<defs>
		<rect id="SVGID_1_" x="-54.188" y="-78.371" width="324.68" height="228.576"/>
	</defs>
	<clipPath id="SVGID_2_">
		<use xlink:href="#SVGID_1_"  overflow="visible"/>
	</clipPath>
	<path clip-path="url(#SVGID_2_)" fill="#FFFFFF" d="M99.744,37.107c-2.81,2.645-5.951,3.926-9.504,3.926
		c-6.157,0-10.62-4.05-10.62-9.669c0-2.728,1.116-6.405,6.198-9.009c-1.281-1.777-2.066-3.554-2.066-5.909
		c0-4.793,3.926-8.389,9.133-8.389c4.876,0,8.555,3.471,8.555,8.059c0,3.553-1.943,6.281-5.787,8.141l3.885,3.967
		c0.827-1.405,1.653-2.976,2.396-4.752l0.58-1.364l5.373,2.479l-0.621,1.323c-1.281,2.769-2.437,4.876-3.595,6.569l5.373,5.497
		l-4.836,3.676L99.744,37.107z M95.735,32.976l-6.116-6.323c-2.438,1.117-3.76,2.727-3.76,4.586c0,2.398,1.901,4.093,4.628,4.093
		C92.306,35.331,94.041,34.586,95.735,32.976 M95.447,16.28c0-1.528-1.116-2.644-2.687-2.644c-1.777,0-2.975,1.156-2.975,2.81
		c0,1.075,0.289,1.901,1.901,3.719C94.992,18.884,95.447,17.438,95.447,16.28"/>
	<polygon clip-path="url(#SVGID_2_)" fill="#FFFFFF" points="124.333,9.544 130.366,9.544 130.366,21.776 143.508,21.776 
		143.508,9.544 149.499,9.544 149.499,40 143.508,40 143.508,27.728 130.366,27.728 130.366,40 124.333,40 	"/>
	<path clip-path="url(#SVGID_2_)" fill="#FFFFFF" d="M159.377,36.529c-2.438-2.48-3.677-5.827-3.677-9.835V9.545h6.033v17.232
		c0,2.562,0.742,4.461,2.19,5.868c1.238,1.199,2.849,1.735,4.917,1.735c2.065,0,3.72-0.536,4.999-1.735
		c1.447-1.363,2.191-3.266,2.191-5.868V9.545h5.991v17.149c0,4.008-1.239,7.314-3.678,9.835c-2.438,2.521-5.62,3.801-9.504,3.801
		C165.037,40.33,161.856,39.051,159.377,36.529"/>
	<polygon clip-path="url(#SVGID_2_)" fill="#FFFFFF" points="186.568,34.091 203.721,34.091 203.721,27.727 191.281,27.727 
		191.281,21.777 203.721,21.777 203.721,15.412 186.568,15.412 186.568,9.544 209.753,9.544 209.753,40 186.568,40 	"/>
	<path clip-path="url(#SVGID_2_)" fill="#FFFFFF" d="M218.887,37.396c-2.11-1.693-3.266-4.089-3.596-7.147l-0.165-1.613h6.198
		L221.407,30c0.083,1.405,0.745,2.438,2.024,3.184c1.281,0.741,3.017,1.074,5.249,1.074c6.281,0,6.281-2.48,6.281-3.389
		c0-0.662-0.206-1.075-0.745-1.447c-0.827-0.579-1.858-1.034-3.099-1.405c-1.365-0.413-2.851-0.745-4.463-1.116
		c-1.694-0.372-3.264-0.909-4.752-1.488c-1.57-0.62-2.934-1.488-3.967-2.562c-1.239-1.199-1.818-2.81-1.818-4.793
		c0-2.687,1.033-4.917,3.1-6.613c1.984-1.611,4.916-2.438,8.718-2.438c3.803,0,6.861,0.909,9.051,2.728
		c2.025,1.653,3.182,3.843,3.306,6.488l0.082,1.529h-6.032l-0.166-1.281c-0.123-1.034-0.62-2.48-3.347-3.307
		c-0.826-0.247-1.9-0.372-3.14-0.372c-1.241,0-2.274,0.125-3.102,0.414c-0.744,0.248-1.322,0.537-1.734,0.868
		c-0.33,0.289-0.538,0.578-0.618,0.908c-0.125,0.373-0.209,0.827-0.209,1.324c0,0.082,0,0.289,0.372,0.661
		c0.414,0.413,0.993,0.743,1.694,1.033c0.827,0.331,1.777,0.62,2.853,0.909c1.114,0.29,2.273,0.497,3.47,0.826
		c1.199,0.331,2.396,0.62,3.597,1.033c1.239,0.414,2.355,0.992,3.346,1.612c2.356,1.487,3.637,3.679,3.637,6.322
		c0,3.1-1.197,5.497-3.512,7.107c-2.189,1.529-5.166,2.314-8.843,2.314C224.465,40.124,221.159,39.216,218.887,37.396"/>
	<polygon clip-path="url(#SVGID_2_)" fill="#EB2227" points="29.237,48.084 30.185,48.084 30.185,51.784 32.539,51.784 
		32.539,52.715 29.237,52.715 	"/>
	<path clip-path="url(#SVGID_2_)" fill="#EB2227" d="M36.447,48.09h0.94v2.584c0,0.615,0.503,1.115,1.125,1.115
		c0.623,0,1.125-0.5,1.125-1.115V48.09h0.94v2.584c0,1.131-0.924,2.046-2.065,2.046c-1.141,0-2.065-0.915-2.065-2.046V48.09z"/>
	<polygon clip-path="url(#SVGID_2_)" fill="#EB2227" points="48.518,48.084 46.945,50.4 48.518,52.715 47.368,52.715 46.372,51.245 
		45.374,52.715 44.227,52.715 45.797,50.4 44.227,48.084 45.374,48.084 46.372,49.554 47.368,48.084 	"/>
	<path clip-path="url(#SVGID_2_)" fill="#EB2227" d="M52.163,48.09h0.941v2.584c0,0.615,0.503,1.115,1.125,1.115
		c0.622,0,1.125-0.5,1.125-1.115V48.09h0.94v2.584c0,1.131-0.925,2.046-2.065,2.046s-2.066-0.915-2.066-2.046V48.09z"/>
	<path clip-path="url(#SVGID_2_)" fill="#EB2227" d="M62.434,48.084c0.877,0,1.588,0.71,1.588,1.588
		c0,0.668-0.414,1.239-0.998,1.474l1.319,1.569h-1.217L61.9,51.257H61.14v1.458h-0.932v-4.631
		C61.057,48.084,61.584,48.084,62.434,48.084 M62.434,50.325c0.362,0,0.656-0.292,0.656-0.653c0-0.363-0.293-0.657-0.656-0.657
		H61.14v1.311H62.434z"/>
	<polygon clip-path="url(#SVGID_2_)" fill="#EB2227" points="69.124,48.084 70.132,49.624 71.142,48.084 72.277,48.084 
		70.612,50.627 70.612,52.715 69.653,52.715 69.653,50.627 67.987,48.084 	"/>
	<polygon clip-path="url(#SVGID_2_)" fill="#EB2227" points="84.66,49.777 86.016,48.084 86.976,48.084 86.976,52.715 
		86.044,52.715 86.044,49.54 84.66,51.27 83.276,49.54 83.276,52.715 82.345,52.715 82.345,48.084 83.306,48.084 	"/>
	<polygon clip-path="url(#SVGID_2_)" fill="#EB2227" points="90.887,48.082 94.188,48.082 94.188,49.013 91.835,49.013 
		91.835,49.931 93.945,49.931 93.945,50.863 91.835,50.863 91.835,51.782 94.188,51.782 94.188,52.711 90.887,52.711 	"/>
	<polygon clip-path="url(#SVGID_2_)" fill="#EB2227" points="98.097,48.082 101.4,48.082 101.4,49.013 99.046,49.013 99.046,49.931 
		101.155,49.931 101.155,50.863 99.046,50.863 99.046,51.782 101.4,51.782 101.4,52.711 98.097,52.711 	"/>
	<polygon clip-path="url(#SVGID_2_)" fill="#EB2227" points="105.308,48.084 109.104,48.084 109.104,49.015 107.683,49.015 
		107.683,52.715 106.728,52.715 106.728,49.015 105.308,49.015 	"/>
	<path clip-path="url(#SVGID_2_)" fill="#EB2227" d="M114.538,51.835c0.326-0.002,0.935-0.052,0.935-0.496
		c0-0.419-0.653-0.447-0.934-0.47c-0.884-0.068-1.927-0.216-1.927-1.368c0-1.023,1.044-1.521,1.925-1.465
		c0.801,0.053,1.344,0.357,1.764,1.046l-0.78,0.479c-0.224-0.359-0.57-0.546-0.981-0.587c-0.341-0.037-0.919,0.076-0.919,0.526
		c0,0.42,0.63,0.437,0.917,0.457c0.929,0.066,1.939,0.274,1.939,1.381c0,1.092-1.035,1.428-1.938,1.428
		c-0.946,0-1.735-0.351-2.193-1.229l0.799-0.489C113.427,51.601,113.943,51.836,114.538,51.835"/>
	<polygon clip-path="url(#SVGID_2_)" fill="#EB2227" points="126.478,48.084 127.427,48.084 127.427,51.784 129.782,51.784 
		129.782,52.715 126.478,52.715 	"/>
	<path clip-path="url(#SVGID_2_)" fill="#EB2227" d="M135.807,48.084c1.278,0,2.314,1.038,2.314,2.316
		c0,1.277-1.036,2.314-2.314,2.314c-1.279,0-2.316-1.037-2.316-2.314C133.49,49.122,134.527,48.084,135.807,48.084 M134.422,50.4
		c0,0.764,0.62,1.384,1.385,1.384s1.384-0.62,1.384-1.384c0-0.767-0.619-1.386-1.384-1.386S134.422,49.634,134.422,50.4"/>
	<path clip-path="url(#SVGID_2_)" fill="#EB2227" d="M141.831,48.09h0.94v2.584c0,0.615,0.503,1.115,1.125,1.115
		c0.621,0,1.126-0.5,1.126-1.115V48.09h0.94v2.584c0,1.131-0.925,2.046-2.066,2.046s-2.065-0.915-2.065-2.046V48.09z"/>
	<polygon clip-path="url(#SVGID_2_)" fill="#EB2227" points="149.877,48.084 150.815,48.084 153.066,51.135 153.066,48.084 
		154.008,48.084 154.008,52.715 153.066,52.715 150.815,49.662 150.815,52.715 149.877,52.715 	"/>
	<path clip-path="url(#SVGID_2_)" fill="#EB2227" d="M162.102,48.88l-0.682,0.66c-0.261-0.321-0.664-0.525-1.116-0.525
		c-0.787,0-1.425,0.619-1.425,1.386c0,0.764,0.638,1.384,1.425,1.384c0.363,0,0.696-0.133,0.948-0.351v-0.456h-0.948v-0.932h1.906
		v1.743c-0.435,0.563-1.126,0.926-1.906,0.926c-1.317,0-2.384-1.036-2.384-2.314c0-1.277,1.066-2.316,2.384-2.316
		C161.021,48.084,161.664,48.393,162.102,48.88"/>
	<rect x="166.115" y="48.084" clip-path="url(#SVGID_2_)" fill="#EB2227" width="0.979" height="4.631"/>
	<polygon clip-path="url(#SVGID_2_)" fill="#EB2227" points="171.003,48.084 171.94,48.084 174.192,51.135 174.192,48.084 
		175.134,48.084 175.134,52.715 174.192,52.715 171.94,49.662 171.94,52.715 171.003,52.715 	"/>
	<path clip-path="url(#SVGID_2_)" fill="#EB2227" d="M183.227,48.88l-0.679,0.66c-0.262-0.321-0.664-0.525-1.117-0.525
		c-0.788,0-1.426,0.619-1.426,1.386c0,0.764,0.638,1.384,1.426,1.384c0.364,0,0.696-0.133,0.947-0.351v-0.456h-0.947v-0.932h1.907
		l-0.001,1.743c-0.434,0.563-1.127,0.926-1.906,0.926c-1.317,0-2.383-1.036-2.383-2.314c0-1.277,1.065-2.316,2.383-2.316
		C182.146,48.084,182.79,48.393,183.227,48.88"/>
</g>
</svg>
